<svg width="91" height="30" viewBox="0 0 91 30" fill="none" xmlns="http://www.w3.org/2000/svg">
<g clip-path="url(#clip0_70_248)">
<path d="M38.8136 15.385C38.8136 19.5491 35.5297 22.6176 31.4996 22.6176C27.4695 22.6176 24.1855 19.5491 24.1855 15.385C24.1855 11.1915 27.4695 8.15234 31.4996 8.15234C35.5297 8.15234 38.8136 11.1915 38.8136 15.385ZM35.6118 15.385C35.6118 12.7828 33.7086 11.0023 31.4996 11.0023C29.2906 11.0023 27.3873 12.7828 27.3873 15.385C27.3873 17.961 29.2906 19.7676 31.4996 19.7676C33.7086 19.7676 35.6118 17.9578 35.6118 15.385Z" fill="#EA4335"/>
<path d="M54.5929 15.385C54.5929 19.5491 51.309 22.6176 47.2789 22.6176C43.2488 22.6176 39.9648 19.5491 39.9648 15.385C39.9648 11.1947 43.2488 8.15234 47.2789 8.15234C51.309 8.15234 54.5929 11.1915 54.5929 15.385ZM51.3911 15.385C51.3911 12.7828 49.4879 11.0023 47.2789 11.0023C45.0699 11.0023 43.1666 12.7828 43.1666 15.385C43.1666 17.961 45.0699 19.7676 47.2789 19.7676C49.4879 19.7676 51.3911 17.9578 51.3911 15.385Z" fill="#FBBC05"/>
<path d="M69.7135 8.5893V21.5741C69.7135 26.9154 66.5381 29.0969 62.7841 29.0969C59.2503 29.0969 57.1235 26.7523 56.3214 24.835L59.109 23.6839C59.6054 24.861 60.8216 26.2502 62.7808 26.2502C65.1837 26.2502 66.6728 24.7795 66.6728 22.011V20.9708H66.5611C65.8445 21.848 64.4638 22.6143 62.7216 22.6143C59.0761 22.6143 55.7363 19.4643 55.7363 15.411C55.7363 11.3284 59.0761 8.15234 62.7216 8.15234C64.4606 8.15234 65.8412 8.91865 66.5611 9.76973H66.6728V8.59256H69.7135V8.5893ZM66.8997 15.411C66.8997 12.8643 65.187 11.0023 63.0076 11.0023C60.7986 11.0023 58.9479 12.8643 58.9479 15.411C58.9479 17.9317 60.7986 19.7676 63.0076 19.7676C65.187 19.7676 66.8997 17.9317 66.8997 15.411Z" fill="#4285F4"/>
<path d="M74.7263 0.978027V22.1737H71.6035V0.978027H74.7263Z" fill="#34A853"/>
<path d="M86.896 17.7652L89.3812 19.4087C88.5791 20.5859 86.6462 22.6141 83.3064 22.6141C79.1645 22.6141 76.0713 19.4381 76.0713 15.3815C76.0713 11.0804 79.1908 8.14893 82.9481 8.14893C86.7317 8.14893 88.5824 11.1359 89.1872 12.75L89.5192 13.5718L79.7727 17.5761C80.5189 19.0272 81.6793 19.7674 83.3064 19.7674C84.9369 19.7674 86.0677 18.9718 86.896 17.7652ZM79.2467 15.1631L85.762 12.4794C85.4036 11.5761 84.3254 10.9468 83.0566 10.9468C81.4294 10.9468 79.1645 12.3718 79.2467 15.1631Z" fill="#EA4335"/>
<path d="M12.365 13.5033V10.4348H22.7887C22.8906 10.9696 22.9432 11.6022 22.9432 12.287C22.9432 14.5892 22.3088 17.4359 20.2641 19.4642C18.2754 21.5185 15.7344 22.6142 12.3683 22.6142C6.12918 22.6142 0.882812 17.5729 0.882812 11.3838C0.882812 5.19462 6.12918 0.15332 12.3683 0.15332C15.8198 0.15332 18.2787 1.4968 20.1261 3.24789L17.9434 5.4131C16.6186 4.18049 14.8238 3.2218 12.365 3.2218C7.80894 3.2218 4.24562 6.86419 4.24562 11.3838C4.24562 15.9033 7.80894 19.5457 12.365 19.5457C15.3202 19.5457 17.0032 18.3685 18.0814 17.299C18.9558 16.4316 19.5311 15.1925 19.7579 13.5001L12.365 13.5033Z" fill="#4285F4"/>
</g>
<defs>
<clipPath id="clip0_70_248">
<rect width="89.4118" height="30" fill="white" transform="translate(0.764648)"/>
</clipPath>
</defs>
</svg>
